<svg width="205" height="68" viewBox="0 0 205 68" fill="none" xmlns="http://www.w3.org/2000/svg">
<g clip-path="url(#clip0_419_9191)">
<path d="M47.0786 39.1319C46.5903 35.4489 45.6472 31.8554 44.2748 28.4493C14.4719 30.5705 27.0725 0 27.0725 0C27.0725 0 19.6837 1.72038 13.1401 11.259C6.5965 20.7977 12.1711 38.5194 12.1711 38.5194C4.65852 34.0158 4.17615 22.2388 4.17615 22.2388C0.00341397 33.4978 -0.747059 41.6043 0.630109 47.414C1.80078 53.6649 5.05438 59.2186 9.76031 62.9987C14.4662 66.7789 20.2894 68.5162 26.1012 67.8741C31.9131 67.2321 37.2998 64.2562 41.2174 59.5234C45.135 54.7906 47.3045 48.6377 47.3054 42.2574C47.323 41.2099 47.2471 40.1632 47.0786 39.1319Z" fill="white"/>
<path d="M39.9991 23.1755C39.9991 23.1755 43.6399 10.2006 30.0332 8.12891C30.0332 8.1199 25.209 21.9685 39.9991 23.1755Z" fill="white"/>
<path d="M62.1241 39.0418C62.0871 39.0433 62.0503 39.036 62.0161 39.0205C61.9819 39.0049 61.9513 38.9815 61.9262 38.9517C61.8998 38.9236 61.8788 38.89 61.8647 38.8528C61.8505 38.8157 61.8434 38.7758 61.8438 38.7355V30.3363C61.8433 30.2954 61.8503 30.2547 61.8645 30.2168C61.8787 30.1789 61.8997 30.1445 61.9262 30.1156C61.9519 30.0867 61.9827 30.0639 62.0167 30.0484C62.0507 30.0329 62.0873 30.0251 62.1241 30.0255H63.2209C63.2585 30.0242 63.2959 30.0316 63.3307 30.0471C63.3655 30.0626 63.397 30.086 63.423 30.1156C63.4725 30.1762 63.499 30.2551 63.4972 30.3363V38.7355C63.4992 38.8154 63.4726 38.893 63.423 38.9517C63.3976 38.9823 63.3663 39.0063 63.3314 39.0219C63.2964 39.0375 63.2586 39.0443 63.2209 39.0418H62.1241Z" fill="white"/>
<path d="M67.9429 39.0419C67.8685 39.0419 67.7972 39.0097 67.7446 38.9522C67.692 38.8948 67.6625 38.8169 67.6625 38.7357V30.35C67.6604 30.3068 67.6666 30.2636 67.6808 30.2232C67.695 30.1829 67.7169 30.1462 67.745 30.1158C67.7707 30.0869 67.8015 30.064 67.8355 30.0486C67.8695 30.0331 67.906 30.0253 67.9429 30.0257H68.8376C68.8808 30.0209 68.9243 30.026 68.9655 30.0407C69.0067 30.0555 69.0446 30.0795 69.0768 30.1113C69.1141 30.1474 69.1473 30.1882 69.1757 30.2329L72.5362 36.002V30.35C72.5329 30.2644 72.5594 30.1807 72.6104 30.1158C72.6364 30.0861 72.6679 30.0628 72.7027 30.0473C72.7375 30.0317 72.7749 30.0244 72.8125 30.0257H73.7856C73.8244 30.0242 73.8631 30.0315 73.8993 30.047C73.9354 30.0625 73.9683 30.0859 73.9958 30.1158C74.0231 30.1469 74.0445 30.1836 74.0587 30.2238C74.0728 30.264 74.0795 30.3069 74.0783 30.35V38.7222C74.0796 38.7646 74.073 38.8068 74.0589 38.8463C74.0447 38.8858 74.0232 38.9218 73.9958 38.9519C73.9708 38.9816 73.9401 39.0051 73.906 39.0206C73.8718 39.0362 73.8349 39.0435 73.7979 39.0419H72.8867C72.8444 39.0473 72.8016 39.042 72.7616 39.0264C72.7215 39.0108 72.6853 38.9853 72.6558 38.9519C72.6234 38.9093 72.5875 38.8701 72.5486 38.8348L69.2046 33.1962V38.7357C69.2047 38.7771 69.197 38.818 69.1822 38.8561C69.1673 38.8942 69.1455 38.9285 69.1182 38.9572C69.0908 38.9858 69.0584 39.008 69.023 39.0226C68.9875 39.0372 68.9497 39.0438 68.9119 39.0419H67.9429Z" fill="white"/>
<path d="M80.3092 39.0418C80.2722 39.043 80.2354 39.0356 80.2013 39.0201C80.1672 39.0046 80.1365 38.9813 80.1112 38.9517C80.0854 38.9235 80.0651 38.8897 80.0516 38.8525C80.0381 38.8153 80.0318 38.7755 80.0329 38.7356V31.6109H77.8723C77.7981 31.6102 77.7271 31.5778 77.6744 31.5208C77.6484 31.4917 77.6281 31.4571 77.6146 31.4192C77.6011 31.3813 77.5948 31.3408 77.5961 31.3001V30.3498C77.5941 30.3071 77.6 30.2643 77.6135 30.2241C77.6269 30.1838 77.6477 30.147 77.6744 30.1157C77.7271 30.0586 77.7981 30.0263 77.8723 30.0256H83.818C83.8569 30.0241 83.8956 30.0314 83.9317 30.0469C83.9679 30.0623 84.0008 30.0858 84.0283 30.1157C84.0556 30.1467 84.077 30.1835 84.0911 30.2237C84.1053 30.2639 84.112 30.3068 84.1108 30.3498V31.2821C84.1113 31.323 84.1042 31.3636 84.09 31.4015C84.0759 31.4395 84.0549 31.4739 84.0283 31.5028C84.0008 31.5327 83.9679 31.5561 83.9317 31.5716C83.8956 31.5871 83.8569 31.5943 83.818 31.5928H81.674V38.7175C81.6754 38.758 81.6687 38.7982 81.6545 38.8355C81.6403 38.8728 81.6188 38.9063 81.5915 38.9337C81.5644 38.9643 81.5316 38.9882 81.4953 39.0037C81.4591 39.0192 81.4201 39.0261 81.3812 39.0238L80.3092 39.0418Z" fill="white"/>
<path d="M87.8996 39.0418C87.8626 39.0433 87.8258 39.0361 87.7916 39.0205C87.7574 39.005 87.7268 38.9815 87.7017 38.9517C87.6753 38.9237 87.6543 38.89 87.6402 38.8529C87.626 38.8157 87.6189 38.7758 87.6193 38.7356V30.3498C87.6181 30.3068 87.6247 30.2639 87.6389 30.2237C87.6531 30.1835 87.6744 30.1467 87.7017 30.1157C87.7274 30.0868 87.7582 30.0639 87.7922 30.0484C87.8262 30.0329 87.8628 30.0252 87.8996 30.0256H93.029C93.0678 30.0241 93.1065 30.0314 93.1426 30.0469C93.1788 30.0623 93.2117 30.0858 93.2393 30.1157C93.2666 30.1467 93.2879 30.1835 93.302 30.2237C93.3162 30.2639 93.3229 30.3068 93.3217 30.3498V31.1965C93.3222 31.2375 93.3151 31.2781 93.3009 31.316C93.2868 31.3539 93.2658 31.3883 93.2393 31.4172C93.2117 31.4471 93.1788 31.4705 93.1426 31.486C93.1065 31.5015 93.0678 31.5087 93.029 31.5073H89.1943V33.7861H92.7733C92.851 33.7835 92.9265 33.8142 92.9836 33.8717C93.0106 33.901 93.0315 33.9362 93.045 33.975C93.0585 34.0139 93.0643 34.0554 93.0619 34.0968V34.885C93.0643 34.9264 93.0585 34.9679 93.045 35.0068C93.0315 35.0456 93.0106 35.0808 92.9836 35.1102C92.9265 35.1676 92.851 35.1983 92.7733 35.1957H89.1943V37.5511H93.1238C93.1629 37.5491 93.2019 37.5561 93.2384 37.5718C93.2748 37.5875 93.3078 37.6115 93.3351 37.6422C93.3623 37.6728 93.3833 37.7095 93.3967 37.7497C93.41 37.7899 93.4154 37.8327 93.4124 37.8754V38.7266C93.4136 38.7665 93.4072 38.8063 93.3937 38.8435C93.3803 38.8807 93.36 38.9145 93.3341 38.9427C93.3065 38.9726 93.2736 38.996 93.2375 39.0115C93.2013 39.027 93.1626 39.0343 93.1238 39.0328L87.8996 39.0418Z" fill="white"/>
<path d="M97.4817 39.0418C97.4447 39.0433 97.4078 39.0361 97.3736 39.0205C97.3395 39.005 97.3088 38.9815 97.2838 38.9517C97.2573 38.9237 97.2364 38.89 97.2222 38.8529C97.208 38.8157 97.2009 38.7758 97.2013 38.7356V30.3498C97.2001 30.3068 97.2068 30.2639 97.2209 30.2237C97.2351 30.1835 97.2565 30.1467 97.2838 30.1157C97.3094 30.0868 97.3402 30.0639 97.3742 30.0484C97.4083 30.033 97.4448 30.0252 97.4817 30.0256H100.5C101.296 29.9784 102.082 30.2329 102.726 30.7462C103.004 31.0014 103.224 31.3241 103.367 31.6886C103.51 32.053 103.573 32.449 103.551 32.8448C103.577 33.3909 103.439 33.9314 103.156 34.383C102.874 34.8346 102.464 35.1723 101.988 35.3443L103.691 38.632C103.714 38.6745 103.727 38.7224 103.728 38.7716C103.73 38.8082 103.723 38.8447 103.71 38.8782C103.696 38.9118 103.676 38.9415 103.65 38.9652C103.605 39.0134 103.544 39.0408 103.481 39.0418H102.421C102.366 39.0458 102.31 39.0374 102.258 39.0173C102.205 38.9972 102.157 38.9657 102.116 38.9247C102.052 38.8573 101.998 38.7799 101.955 38.695L100.45 35.6416H98.83V38.7356C98.832 38.8154 98.8054 38.893 98.7558 38.9517C98.7296 38.9825 98.6976 39.0065 98.6619 39.022C98.6263 39.0376 98.5879 39.0444 98.5496 39.0418H97.4817ZM98.8217 34.1869H100.471C100.853 34.2199 101.232 34.0927 101.531 33.8311C101.651 33.7025 101.745 33.547 101.805 33.3753C101.866 33.2035 101.892 33.0195 101.881 32.8358C101.89 32.65 101.864 32.464 101.805 32.2897C101.745 32.1153 101.653 31.9563 101.535 31.8225C101.238 31.5528 100.856 31.4218 100.471 31.4577H98.8217V34.1869Z" fill="white"/>
<path d="M110.515 39.1726C109.901 39.1908 109.292 39.06 108.73 38.7898C108.239 38.5431 107.832 38.1332 107.567 37.6189C107.267 37.0114 107.11 36.332 107.109 35.6418C107.109 35.2725 107.109 34.9077 107.109 34.5474C107.109 34.1871 107.109 33.8178 107.109 33.4395C107.112 32.7542 107.272 32.0805 107.575 31.4805C107.855 30.9673 108.266 30.5553 108.759 30.296C109.313 30.0315 109.912 29.895 110.517 29.895C111.122 29.895 111.721 30.0315 112.276 30.296C112.771 30.5526 113.185 30.9651 113.463 31.4805C113.77 32.0789 113.931 32.7536 113.929 33.4395C113.946 33.8178 113.954 34.1871 113.954 34.5474C113.954 34.9077 113.946 35.2725 113.929 35.6418C113.932 36.3319 113.776 37.0117 113.476 37.6189C113.207 38.1337 112.798 38.5433 112.305 38.7898C111.741 39.0595 111.13 39.1902 110.515 39.1726ZM110.515 37.6909C110.971 37.7093 111.415 37.5314 111.752 37.1955C112.108 36.7496 112.292 36.1698 112.263 35.5788C112.263 35.2004 112.288 34.8492 112.288 34.5294C112.288 34.2096 112.288 33.8584 112.263 33.4891C112.264 33.0683 112.178 32.6529 112.012 32.2731C111.879 31.9819 111.666 31.7439 111.402 31.5931C111.126 31.4441 110.822 31.37 110.515 31.3769C110.212 31.3711 109.912 31.4453 109.641 31.5931C109.376 31.7436 109.161 31.9816 109.027 32.2731C108.862 32.6533 108.778 33.0687 108.779 33.4891C108.779 33.8584 108.779 34.2051 108.779 34.5294C108.779 34.8492 108.779 35.2004 108.779 35.5788C108.748 36.1702 108.932 36.751 109.291 37.1955C109.623 37.5314 110.063 37.7096 110.515 37.6909Z" fill="white"/>
<path d="M118.095 39.0419C118.021 39.0419 117.95 39.0096 117.897 38.9521C117.844 38.8947 117.815 38.8168 117.815 38.7356V30.3499C117.813 30.3067 117.819 30.2635 117.833 30.2231C117.847 30.1828 117.869 30.1462 117.897 30.1157C117.923 30.0868 117.954 30.064 117.988 30.0485C118.022 30.033 118.058 30.0252 118.095 30.0256H121.204C121.747 30.0117 122.288 30.119 122.792 30.3409C123.223 30.5334 123.588 30.8669 123.839 31.2956C124.103 31.7743 124.234 32.3269 124.214 32.8854C124.236 33.4442 124.105 33.9975 123.839 34.4752C123.586 34.8976 123.221 35.2247 122.792 35.4119C122.286 35.6263 121.747 35.7304 121.204 35.7182H119.468V38.7356C119.47 38.8155 119.444 38.8931 119.394 38.9518C119.368 38.9825 119.336 39.0065 119.3 39.0221C119.265 39.0377 119.226 39.0444 119.188 39.0419H118.095ZM119.456 34.2905H121.159C121.534 34.3195 121.905 34.1924 122.198 33.9348C122.324 33.7984 122.421 33.6342 122.484 33.4532C122.546 33.2721 122.573 33.0785 122.561 32.8854C122.576 32.5053 122.454 32.1337 122.223 31.8496C122.079 31.708 121.911 31.6001 121.728 31.5327C121.545 31.4653 121.351 31.4398 121.159 31.4578H119.456V34.2905Z" fill="white"/>
<path d="M128.105 39.0418C128.068 39.0418 128.032 39.0339 127.998 39.0184C127.964 39.003 127.934 38.9803 127.908 38.9518C127.882 38.9233 127.862 38.8896 127.848 38.8524C127.835 38.8153 127.828 38.7756 127.828 38.7356V30.3498C127.827 30.3071 127.832 30.2643 127.846 30.2241C127.859 30.1838 127.88 30.147 127.907 30.1157C127.96 30.0586 128.031 30.0263 128.105 30.0256H133.234C133.273 30.0241 133.312 30.0314 133.348 30.0469C133.384 30.0623 133.417 30.0858 133.444 30.1157C133.472 30.1461 133.494 30.1827 133.509 30.2231C133.523 30.2635 133.529 30.3067 133.527 30.3498V31.1965C133.528 31.2376 133.522 31.2785 133.508 31.3166C133.493 31.3547 133.472 31.389 133.444 31.4172C133.417 31.4471 133.384 31.4705 133.348 31.486C133.312 31.5015 133.273 31.5087 133.234 31.5073H129.399V33.7861H132.979C133.017 33.784 133.056 33.7906 133.092 33.8053C133.128 33.82 133.161 33.8426 133.189 33.8717C133.216 33.9006 133.238 33.9356 133.252 33.9745C133.267 34.0133 133.273 34.0551 133.271 34.0968V34.885C133.273 34.9268 133.267 34.9685 133.252 35.0073C133.238 35.0462 133.216 35.0812 133.189 35.1102C133.161 35.1392 133.128 35.1618 133.092 35.1765C133.056 35.1912 133.017 35.1978 132.979 35.1957H129.399V37.5511H133.329C133.368 37.5497 133.406 37.5569 133.443 37.5724C133.479 37.5879 133.512 37.6113 133.539 37.6412C133.594 37.7043 133.624 37.7885 133.622 37.8754V38.7266C133.622 38.7679 133.614 38.8089 133.599 38.8469C133.584 38.885 133.563 38.9194 133.535 38.948C133.508 38.9766 133.476 38.9989 133.44 39.0135C133.405 39.0281 133.367 39.0346 133.329 39.0328L128.105 39.0418Z" fill="white"/>
<path d="M137.697 39.0418C137.66 39.0418 137.624 39.0339 137.59 39.0184C137.556 39.003 137.525 38.9803 137.5 38.9518C137.474 38.9233 137.454 38.8896 137.44 38.8524C137.426 38.8153 137.42 38.7756 137.42 38.7356V30.3498C137.418 30.3071 137.424 30.2643 137.438 30.2241C137.451 30.1838 137.472 30.147 137.499 30.1157C137.551 30.0586 137.622 30.0263 137.697 30.0256H140.719C141.515 29.9784 142.301 30.2329 142.945 30.7462C143.223 31.0014 143.443 31.3241 143.586 31.6886C143.729 32.053 143.792 32.449 143.77 32.8448C143.794 33.3905 143.655 33.9299 143.373 34.381C143.091 34.8322 142.682 35.1704 142.207 35.3443L143.91 38.632C143.93 38.6756 143.941 38.7231 143.943 38.7716C143.944 38.8078 143.938 38.8437 143.925 38.8771C143.912 38.9105 143.893 38.9405 143.869 38.9652C143.823 39.0127 143.763 39.04 143.7 39.0418H142.636C142.581 39.0451 142.527 39.0365 142.475 39.0164C142.423 38.9963 142.376 38.9651 142.335 38.9247C142.272 38.8561 142.216 38.7789 142.17 38.695L140.669 35.6416H139.049V38.7356C139.049 38.816 139.021 38.8935 138.971 38.9517C138.945 38.9824 138.914 39.0064 138.879 39.022C138.844 39.0375 138.806 39.0443 138.769 39.0418H137.697ZM139.041 34.1869H140.69C141.072 34.2208 141.451 34.0935 141.75 33.8311C141.87 33.7025 141.964 33.547 142.024 33.3753C142.085 33.2035 142.111 33.0195 142.1 32.8358C142.11 32.6503 142.085 32.4646 142.026 32.2902C141.967 32.1159 141.876 31.9566 141.758 31.8225C141.459 31.5539 141.076 31.423 140.69 31.4577H139.041V34.1869Z" fill="white"/>
<path d="M147.085 39.0417C147.022 39.0399 146.962 39.0126 146.916 38.9652C146.892 38.9404 146.873 38.9104 146.86 38.877C146.847 38.8436 146.841 38.8077 146.842 38.7715C146.843 38.7312 146.852 38.6915 146.867 38.6544L149.675 30.3498C149.698 30.2627 149.744 30.1847 149.806 30.1246C149.884 30.056 149.983 30.0208 150.083 30.0255H151.353C151.401 30.0216 151.45 30.0283 151.496 30.0453C151.542 30.0624 151.584 30.0893 151.621 30.1246C151.683 30.1867 151.731 30.2638 151.761 30.3498L154.569 38.6544C154.572 38.6934 154.572 38.7326 154.569 38.7715C154.57 38.8074 154.565 38.8432 154.553 38.8766C154.541 38.91 154.522 38.9402 154.499 38.9652C154.478 38.9892 154.453 39.0083 154.425 39.0215C154.398 39.0346 154.368 39.0415 154.338 39.0417H153.324C153.281 39.0461 153.238 39.0412 153.197 39.0273C153.156 39.0134 153.117 38.9907 153.084 38.9607C153.039 38.9166 153.005 38.8608 152.985 38.7985L152.437 37.2268H148.974L148.425 38.7985C148.402 38.8591 148.369 38.9142 148.326 38.9607C148.293 38.9907 148.255 39.0134 148.214 39.0273C148.173 39.0412 148.13 39.0461 148.087 39.0417H147.085ZM149.394 35.7451H152.041L150.714 31.7639L149.394 35.7451Z" fill="white"/>
<path d="M158.275 39.0416C158.238 39.0416 158.202 39.0336 158.168 39.0182C158.134 39.0027 158.104 38.9801 158.078 38.9516C158.052 38.9231 158.032 38.8893 158.018 38.8522C158.005 38.815 157.998 38.7753 157.998 38.7353V30.3496C157.996 30.3068 158.002 30.2641 158.016 30.2238C158.029 30.1836 158.05 30.1467 158.077 30.1154C158.129 30.0583 158.2 30.026 158.275 30.0253H161.656C162.185 30.003 162.712 30.1108 163.198 30.3406C163.566 30.5238 163.873 30.8276 164.076 31.2098C164.271 31.6051 164.369 32.0488 164.361 32.4978C164.368 32.7923 164.315 33.0849 164.204 33.3535C164.115 33.5797 163.984 33.7835 163.82 33.9525C163.685 34.0943 163.534 34.2169 163.371 34.3173C163.705 34.4871 163.99 34.7534 164.196 35.0874C164.435 35.4653 164.557 35.9164 164.546 36.3754C164.556 36.8571 164.448 37.3329 164.233 37.7535C164.016 38.1652 163.689 38.495 163.297 38.6993C162.82 38.9434 162.297 39.0607 161.771 39.0416H158.275ZM159.619 33.7228H161.45C161.785 33.7512 162.117 33.633 162.373 33.394C162.476 33.2826 162.557 33.1489 162.61 33.0016C162.663 32.8544 162.688 32.6966 162.682 32.5384C162.69 32.3811 162.667 32.2239 162.614 32.0777C162.56 31.9314 162.478 31.7997 162.373 31.6917C162.109 31.4717 161.781 31.3644 161.45 31.3899H159.619V33.7228ZM159.619 37.677H161.565C161.74 37.6916 161.916 37.6654 162.081 37.6002C162.246 37.535 162.396 37.4322 162.522 37.2987C162.735 37.0485 162.852 36.7176 162.847 36.3754C162.852 36.2021 162.825 36.0295 162.768 35.8678C162.71 35.7062 162.624 35.5587 162.513 35.4342C162.387 35.3038 162.238 35.2033 162.075 35.1389C161.912 35.0746 161.738 35.0479 161.565 35.0604H159.619V37.677Z" fill="white"/>
<path d="M168.62 39.0418C168.584 39.0418 168.547 39.0338 168.513 39.0184C168.48 39.003 168.449 38.9803 168.423 38.9518C168.398 38.9233 168.377 38.8895 168.364 38.8524C168.35 38.8153 168.343 38.7755 168.344 38.7355V30.3363C168.343 30.2957 168.349 30.2552 168.362 30.2172C168.376 30.1793 168.396 30.1448 168.422 30.1156C168.475 30.0586 168.546 30.0262 168.62 30.0256H169.717C169.755 30.0242 169.793 30.0315 169.829 30.047C169.864 30.0625 169.896 30.0859 169.923 30.1156C169.973 30.1762 169.999 30.2551 169.997 30.3363V38.7355C169.999 38.8154 169.973 38.893 169.923 38.9517C169.897 38.9824 169.865 39.0065 169.829 39.022C169.794 39.0376 169.755 39.0444 169.717 39.0418H168.62Z" fill="white"/>
<path d="M174.421 39.0416C174.384 39.0432 174.347 39.0359 174.313 39.0204C174.279 39.0048 174.248 38.9813 174.223 38.9516C174.197 38.9235 174.176 38.8899 174.162 38.8527C174.147 38.8156 174.14 38.7756 174.141 38.7354V30.3362C174.14 30.2952 174.147 30.2546 174.161 30.2167C174.176 30.1788 174.197 30.1444 174.223 30.1155C174.249 30.0866 174.28 30.0637 174.314 30.0483C174.348 30.0328 174.384 30.025 174.421 30.0254H175.505C175.542 30.025 175.579 30.0328 175.613 30.0483C175.647 30.0637 175.678 30.0866 175.703 30.1155C175.731 30.1437 175.752 30.178 175.766 30.2161C175.781 30.2541 175.787 30.2951 175.786 30.3362V37.5104H179.497C179.536 37.5085 179.574 37.5154 179.611 37.5308C179.647 37.5462 179.68 37.5697 179.708 37.5998C179.735 37.6299 179.757 37.6659 179.771 37.7056C179.785 37.7452 179.791 37.7877 179.789 37.8302V38.7309C179.79 38.7723 179.782 38.8132 179.767 38.8513C179.752 38.8893 179.73 38.9237 179.703 38.9524C179.676 38.981 179.643 39.0033 179.608 39.0178C179.572 39.0324 179.535 39.039 179.497 39.0371L174.421 39.0416Z" fill="white"/>
<path d="M183.517 39.0419C183.443 39.0419 183.371 39.0097 183.319 38.9522C183.266 38.8948 183.237 38.8169 183.237 38.7357V30.3365C183.235 30.2954 183.242 30.2544 183.256 30.2164C183.27 30.1783 183.292 30.144 183.319 30.1158C183.345 30.0869 183.375 30.064 183.41 30.0486C183.444 30.0331 183.48 30.0253 183.517 30.0257H184.61C184.648 30.0238 184.686 30.0308 184.722 30.0463C184.757 30.0619 184.789 30.0856 184.816 30.1158C184.865 30.1764 184.892 30.2553 184.89 30.3365V38.7357C184.892 38.8156 184.865 38.8931 184.816 38.9519C184.79 38.9828 184.758 39.007 184.722 39.0226C184.686 39.0382 184.648 39.0448 184.61 39.0419H183.517Z" fill="white"/>
<path d="M191.129 39.0418C191.092 39.0433 191.056 39.0361 191.021 39.0205C190.987 39.005 190.957 38.9815 190.932 38.9517C190.905 38.9237 190.884 38.89 190.87 38.8529C190.856 38.8157 190.849 38.7758 190.849 38.7356V31.6109H188.693C188.656 31.6113 188.619 31.6035 188.585 31.588C188.551 31.5725 188.52 31.5496 188.495 31.5208C188.468 31.4919 188.447 31.4575 188.433 31.4196C188.419 31.3817 188.412 31.341 188.412 31.3001V30.3498C188.411 30.3068 188.418 30.2639 188.432 30.2237C188.446 30.1835 188.467 30.1467 188.495 30.1157C188.52 30.0868 188.551 30.0639 188.585 30.0484C188.619 30.0329 188.656 30.0252 188.693 30.0256H194.638C194.677 30.0241 194.716 30.0314 194.752 30.0469C194.788 30.0623 194.821 30.0858 194.849 30.1157C194.876 30.1467 194.897 30.1835 194.911 30.2237C194.926 30.2639 194.932 30.3068 194.931 30.3498V31.2821C194.932 31.323 194.925 31.3636 194.91 31.4015C194.896 31.4395 194.875 31.4739 194.849 31.5028C194.821 31.5327 194.788 31.5561 194.752 31.5716C194.716 31.5871 194.677 31.5943 194.638 31.5928H192.494V38.7175C192.494 38.7589 192.487 38.7999 192.472 38.8379C192.457 38.876 192.435 38.9104 192.408 38.939C192.38 38.9676 192.348 38.9899 192.313 39.0045C192.277 39.019 192.239 39.0256 192.201 39.0238L191.129 39.0418Z" fill="white"/>
<path d="M200.865 39.042C200.791 39.042 200.719 39.0097 200.667 38.9523C200.614 38.8948 200.585 38.8169 200.585 38.7357V35.8219L197.835 30.4401L197.81 30.3725C197.806 30.3472 197.806 30.3213 197.81 30.2959C197.809 30.2238 197.834 30.1543 197.88 30.1023C197.901 30.0777 197.927 30.0583 197.955 30.0451C197.983 30.0319 198.014 30.0253 198.045 30.0257H199.08C199.161 30.022 199.241 30.0491 199.307 30.1023C199.359 30.1461 199.402 30.2033 199.43 30.2689L201.414 34.0204L203.384 30.2689C203.419 30.2051 203.463 30.1486 203.516 30.1023C203.582 30.0497 203.662 30.0228 203.743 30.0257H204.77C204.802 30.0251 204.835 30.0317 204.865 30.0451C204.895 30.0585 204.922 30.0785 204.945 30.1037C204.967 30.129 204.985 30.1591 204.997 30.1921C205.009 30.2252 205.014 30.2605 205.013 30.2959C205.015 30.3214 205.015 30.347 205.013 30.3725C205.011 30.3979 205 30.4216 204.984 30.4401L202.234 35.8219V38.7357C202.234 38.7771 202.226 38.8181 202.212 38.8561C202.197 38.8942 202.175 38.9286 202.148 38.9572C202.12 38.9858 202.088 39.0081 202.052 39.0226C202.017 39.0372 201.979 39.0438 201.941 39.042H200.865Z" fill="white"/>
<path d="M65.4568 58.3623C64.8292 58.3837 64.2044 58.2625 63.6219 58.0065C63.1824 57.8184 62.7958 57.5079 62.5004 57.1058C62.2532 56.759 62.1092 56.3377 62.0881 55.8988C62.0867 55.863 62.0923 55.8272 62.1043 55.7939C62.1164 55.7605 62.1348 55.7303 62.1582 55.7051C62.1817 55.6802 62.2094 55.6606 62.2398 55.6475C62.2702 55.6343 62.3028 55.6279 62.3355 55.6286H63.3828C63.4653 55.6205 63.5475 55.6462 63.6137 55.7006C63.6674 55.7491 63.7134 55.8069 63.7498 55.8718C63.8052 56.0545 63.8982 56.2209 64.0219 56.3582C64.1762 56.5311 64.3634 56.6648 64.5703 56.75C64.8514 56.862 65.1495 56.914 65.4486 56.9031C65.8886 56.9354 66.3279 56.8291 66.7144 56.5969C66.8436 56.5081 66.9495 56.3843 67.0218 56.2374C67.094 56.0906 67.1302 55.9258 67.1267 55.7592C67.1315 55.6477 67.1142 55.5364 67.0757 55.4329C67.0373 55.3295 66.9787 55.2364 66.9041 55.1602C66.6994 54.9753 66.4643 54.8347 66.2113 54.7459C65.8063 54.5894 65.3932 54.4586 64.9744 54.3541C64.4632 54.2274 63.9667 54.0386 63.4941 53.7911C63.134 53.6063 62.8252 53.3203 62.5994 52.9624C62.3904 52.5636 62.2865 52.1095 62.2988 51.6501C62.3112 51.1908 62.4395 50.7441 62.6695 50.3593C62.9411 49.9575 63.3093 49.6457 63.7333 49.4586C64.2552 49.2211 64.8174 49.1075 65.3826 49.1254C65.8432 49.1155 66.302 49.1917 66.7391 49.3505C67.0958 49.4786 67.4273 49.6787 67.7163 49.9405C67.9566 50.1614 68.1579 50.4286 68.3101 50.7286C68.4414 50.9775 68.5163 51.2569 68.5286 51.5438C68.5287 51.6128 68.5068 51.6797 68.4668 51.733C68.443 51.7603 68.4141 51.7817 68.3821 51.7957C68.3501 51.8097 68.3157 51.8159 68.2812 51.814H67.1886C67.1239 51.8149 67.0601 51.7978 67.003 51.7645C66.932 51.7214 66.8767 51.6531 66.8463 51.5708C66.8171 51.4285 66.7614 51.2943 66.6827 51.1766C66.6039 51.0588 66.5039 50.96 66.3887 50.8863C66.0867 50.6885 65.7385 50.5915 65.3867 50.6071C65.0295 50.5893 64.6746 50.6781 64.36 50.8638C64.2299 50.9412 64.1222 51.0569 64.0493 51.1978C63.9764 51.3388 63.9412 51.4992 63.9477 51.6609C63.9402 51.881 64.0112 52.0957 64.1456 52.2599C64.3211 52.4496 64.5341 52.5929 64.7682 52.6787C65.0568 52.8003 65.4362 52.9264 65.9062 53.066C66.4729 53.1907 67.0258 53.3809 67.5555 53.6335C67.9307 53.8031 68.2539 54.0859 68.4874 54.4486C68.6932 54.8282 68.7948 55.2643 68.7801 55.7051C68.794 56.2251 68.6489 56.7354 68.3678 57.1553C68.0618 57.5758 67.655 57.8954 67.1927 58.0785C66.6346 58.2872 66.0464 58.3833 65.4568 58.3623Z" fill="white"/>
<path d="M75.8107 58.3625C75.199 58.3779 74.5914 58.2488 74.0295 57.9842C73.5349 57.7397 73.1257 57.3274 72.8626 56.8087C72.5664 56.1837 72.4243 55.4853 72.4503 54.7821V49.5399C72.4483 49.453 72.478 49.3688 72.5327 49.3057C72.5592 49.2767 72.5907 49.2538 72.6254 49.2383C72.6601 49.2229 72.6973 49.2152 72.7348 49.2157H73.8068C73.8451 49.2137 73.8833 49.2207 73.9188 49.2363C73.9544 49.2518 73.9865 49.2755 74.013 49.3057C74.0663 49.3695 74.0944 49.4536 74.0913 49.5399V54.7821C74.0486 55.3486 74.2131 55.9106 74.549 56.3449C74.7162 56.5195 74.9145 56.6547 75.1316 56.7423C75.3486 56.8298 75.5797 56.8678 75.8107 56.8538C76.0379 56.8667 76.2651 56.8282 76.478 56.7406C76.6908 56.653 76.8848 56.5183 77.0477 56.3449C77.3801 55.9087 77.5429 55.3478 77.5013 54.7821V49.5399C77.4995 49.4968 77.506 49.4538 77.5203 49.4136C77.5346 49.3734 77.5564 49.3369 77.5843 49.3064C77.6122 49.2759 77.6456 49.252 77.6825 49.2364C77.7193 49.2208 77.7587 49.2137 77.7981 49.2157H78.8578C78.8961 49.2137 78.9343 49.2207 78.9698 49.2363C79.0054 49.2518 79.0375 49.2755 79.064 49.3057C79.1172 49.3695 79.1454 49.4536 79.1423 49.5399V54.7821C79.1666 55.4851 79.0246 56.1831 78.73 56.8087C78.473 57.3277 78.0675 57.7406 77.5755 57.9842C77.0188 58.2467 76.417 58.3757 75.8107 58.3625Z" fill="white"/>
<path d="M83.5735 58.2362C83.5361 58.2367 83.4989 58.229 83.4642 58.2135C83.4295 58.1981 83.398 58.1751 83.3715 58.1461C83.3186 58.0872 83.2891 58.008 83.2891 57.9255V49.5262C83.2891 49.4437 83.3186 49.3645 83.3715 49.3056C83.398 49.2766 83.4295 49.2536 83.4642 49.2382C83.4989 49.2227 83.5361 49.215 83.5735 49.2155H84.6827C84.7209 49.2141 84.7589 49.2214 84.7944 49.2369C84.8299 49.2524 84.8621 49.2758 84.8889 49.3056C84.938 49.3664 84.9645 49.4451 84.9631 49.5262V57.9255C84.9645 58.0066 84.938 58.0853 84.8889 58.1461C84.8621 58.1759 84.8299 58.1993 84.7944 58.2148C84.7589 58.2303 84.7209 58.2376 84.6827 58.2362H83.5735Z" fill="white"/>
<path d="M91.2757 58.2362C91.2382 58.2373 91.2008 58.2298 91.166 58.2143C91.1313 58.1988 91.0998 58.1756 91.0737 58.1462C91.0208 58.0872 90.9912 58.008 90.9912 57.9255V50.8008H88.81C88.7724 50.8014 88.7352 50.7938 88.7004 50.7784C88.6657 50.763 88.6341 50.7401 88.6076 50.7111C88.581 50.6821 88.5601 50.6476 88.546 50.6097C88.5319 50.5717 88.5249 50.531 88.5255 50.49V49.5398C88.5235 49.4529 88.5532 49.3687 88.6079 49.3056C88.6344 49.2766 88.6659 49.2537 88.7006 49.2382C88.7353 49.2227 88.7725 49.215 88.81 49.2155H94.8134C94.8523 49.2141 94.891 49.2213 94.9271 49.2368C94.9633 49.2523 94.9962 49.2757 95.0237 49.3056C95.0785 49.3687 95.1081 49.4529 95.1062 49.5398V50.49C95.1066 50.531 95.0996 50.5716 95.0854 50.6095C95.0713 50.6474 95.0503 50.6818 95.0237 50.7107C94.9962 50.7406 94.9633 50.764 94.9271 50.7795C94.891 50.795 94.8523 50.8022 94.8134 50.8008H92.6405V57.9255C92.6414 57.9665 92.6346 58.0073 92.6204 58.0453C92.6062 58.0832 92.585 58.1176 92.558 58.1462C92.5305 58.1761 92.4976 58.1995 92.4614 58.215C92.4252 58.2305 92.3866 58.2377 92.3477 58.2362H91.2757Z" fill="white"/>
<path d="M98.9369 58.2364C98.8994 58.2369 98.8622 58.2291 98.8275 58.2137C98.7928 58.1982 98.7613 58.1753 98.7349 58.1463C98.682 58.0873 98.6524 58.0081 98.6524 57.9256V49.5399C98.6505 49.453 98.6801 49.3688 98.7349 49.3057C98.7613 49.2767 98.7928 49.2538 98.8275 49.2383C98.8622 49.2228 98.8994 49.2151 98.9369 49.2156H104.124C104.163 49.2137 104.203 49.2208 104.24 49.2364C104.276 49.252 104.31 49.2758 104.338 49.3063C104.366 49.3369 104.388 49.3734 104.402 49.4136C104.416 49.4538 104.423 49.4968 104.421 49.5399V50.3866C104.422 50.4276 104.415 50.4684 104.401 50.5063C104.387 50.5443 104.365 50.5787 104.338 50.6073C104.281 50.6671 104.204 50.6994 104.124 50.6973H100.244V52.9762H103.885C103.964 52.9747 104.04 53.0051 104.099 53.0617C104.127 53.0906 104.149 53.1257 104.163 53.1645C104.177 53.2034 104.183 53.2451 104.182 53.2869V54.084C104.183 54.1258 104.177 54.1675 104.163 54.2064C104.149 54.2452 104.127 54.2803 104.099 54.3092C104.041 54.3674 103.964 54.3981 103.885 54.3948H100.265V56.7547H104.239C104.279 56.7528 104.318 56.7598 104.354 56.7751C104.391 56.7904 104.424 56.8138 104.452 56.8439C104.48 56.8739 104.501 56.9098 104.516 56.9495C104.531 56.9892 104.537 57.0317 104.536 57.0744V57.9256C104.536 58.0081 104.507 58.0873 104.454 58.1463C104.396 58.2061 104.319 58.2385 104.239 58.2364H98.9369Z" fill="white"/>
<path d="M62.1261 18.7799C62.0892 18.7814 62.0523 18.7742 62.0181 18.7586C61.984 18.7431 61.9533 18.7196 61.9282 18.6898C61.9018 18.6618 61.8809 18.6281 61.8667 18.591C61.8525 18.5538 61.8454 18.5139 61.8458 18.4737V10.0879C61.8439 10.001 61.8735 9.91684 61.9282 9.85375C61.9539 9.82488 61.9847 9.802 62.0187 9.78652C62.0528 9.77103 62.0893 9.76327 62.1261 9.76367H63.1528C63.191 9.76282 63.2289 9.77036 63.2643 9.78583C63.2997 9.8013 63.3319 9.82441 63.359 9.85375C63.3869 9.88438 63.4087 9.92102 63.4229 9.96134C63.4371 10.0017 63.4434 10.0448 63.4415 10.0879V13.1009L66.0763 9.99786C66.1212 9.93986 66.1741 9.88974 66.2329 9.84924C66.3225 9.78671 66.4278 9.75675 66.5339 9.76367H67.6843C67.7475 9.76465 67.808 9.79206 67.8533 9.84024C67.8785 9.86439 67.8985 9.89421 67.912 9.92765C67.9256 9.96109 67.9323 9.99734 67.9317 10.0339C67.9331 10.0912 67.9155 10.1472 67.8822 10.1915L64.6785 14.0781L68.1049 18.343C68.1424 18.3888 68.1629 18.4482 68.1626 18.5097C68.1634 18.5459 68.1572 18.5818 68.1444 18.6152C68.1316 18.6485 68.1126 18.6786 68.0884 18.7033C68.0665 18.728 68.0402 18.7475 68.0111 18.7607C67.982 18.7739 67.9508 18.7804 67.9193 18.7799H66.7195C66.6096 18.7872 66.5007 18.7538 66.4102 18.6853C66.3586 18.6431 66.3091 18.598 66.2618 18.5502L63.4415 15.1365V18.4737C63.4429 18.5141 63.4362 18.5543 63.422 18.5916C63.4078 18.629 63.3862 18.6625 63.359 18.6898C63.3325 18.7201 63.3004 18.7437 63.2649 18.7593C63.2293 18.7748 63.1911 18.7818 63.1528 18.7799H62.1261Z" fill="white"/>
<path d="M74.6812 18.9104C74.068 18.9276 73.4587 18.7985 72.8958 18.5321C72.4044 18.2824 71.9965 17.8715 71.7289 17.3567C71.4323 16.748 71.2766 16.0692 71.2754 15.3796C71.2754 15.0103 71.2754 14.6455 71.2754 14.2852C71.2754 13.925 71.2754 13.5556 71.2754 13.1773C71.2779 12.492 71.4382 11.8183 71.7413 11.2183C72.0207 10.7051 72.4323 10.2932 72.9247 10.0338C73.4801 9.7725 74.0785 9.6377 74.6833 9.6377C75.288 9.6377 75.8864 9.7725 76.4418 10.0338C76.9361 10.2917 77.3494 10.7039 77.6293 11.2183C77.9362 11.8167 78.0966 12.4914 78.0952 13.1773C78.1117 13.5556 78.12 13.925 78.12 14.2852C78.12 14.6455 78.1117 15.0103 78.0952 15.3796C78.098 16.0697 77.942 16.7495 77.6417 17.3567C77.3737 17.8728 76.9641 18.2839 76.4707 18.5321C75.9062 18.7981 75.2957 18.9271 74.6812 18.9104ZM74.6812 17.4288C75.1373 17.4491 75.5822 17.2709 75.9182 16.9334C76.2782 16.4896 76.4634 15.9086 76.4336 15.3166C76.4336 14.9383 76.4583 14.587 76.4583 14.2672C76.4583 13.9475 76.4583 13.6007 76.4336 13.2314C76.4343 12.8092 76.3484 12.3921 76.1821 12.0109C76.0493 11.7197 75.8357 11.4817 75.5718 11.3309C75.2962 11.1835 74.9921 11.1109 74.6853 11.1192C74.3826 11.1119 74.0827 11.1845 73.8112 11.3309C73.5461 11.4815 73.3311 11.7194 73.1968 12.0109C73.0324 12.3928 72.9466 12.8094 72.9453 13.2314C72.9453 13.6007 72.9453 13.943 72.9453 14.2672C72.9453 14.5915 72.9453 14.9383 72.9453 15.3166C72.9155 15.9086 73.1007 16.4896 73.4607 16.9334C73.7916 17.2681 74.2304 17.4462 74.6812 17.4288Z" fill="white"/>
<path d="M82.255 18.78C82.2184 18.78 82.1821 18.772 82.1483 18.7566C82.1145 18.7411 82.0839 18.7185 82.0582 18.69C82.0325 18.6615 82.0122 18.6277 81.9986 18.5906C81.9849 18.5534 81.9782 18.5137 81.9787 18.4737V10.088C81.9757 10.0017 82.0039 9.91761 82.0571 9.85382C82.1098 9.79675 82.1808 9.76442 82.255 9.76374H85.1C85.7666 9.73829 86.43 9.8752 87.0421 10.1646C87.5344 10.4122 87.9395 10.8279 88.1966 11.349C88.4755 11.9421 88.6171 12.6008 88.6089 13.2675C88.6089 13.6458 88.6089 13.9836 88.6089 14.2719C88.6089 14.5601 88.6089 14.8979 88.6089 15.2671C88.6129 15.9521 88.4718 16.6288 88.1966 17.2442C87.9537 17.7578 87.5582 18.1659 87.0751 18.4017C86.4666 18.6759 85.8115 18.8049 85.1536 18.78H82.255ZM83.5992 17.2983H85.1C85.4637 17.313 85.8262 17.2439 86.1639 17.0956C86.4313 16.9611 86.644 16.7238 86.7617 16.4291C86.9047 16.0478 86.9748 15.6386 86.9679 15.2266C86.9679 14.9699 86.9679 14.7447 86.9679 14.5511C86.9679 14.3574 86.9679 14.1638 86.9679 13.9701C86.9679 13.7765 86.9679 13.5558 86.9679 13.3081C86.9939 12.7414 86.8231 12.1849 86.4896 11.7498C86.2912 11.5649 86.0609 11.4251 85.8124 11.3385C85.5639 11.2519 85.3022 11.2202 85.0423 11.2454H83.5992V17.2983Z" fill="white"/>
<path d="M95.1404 18.9107C94.7363 18.9132 94.3338 18.8541 93.9446 18.7351C93.5805 18.6283 93.2378 18.448 92.9344 18.2036C92.6426 17.9625 92.4021 17.6552 92.2293 17.3029C92.0483 16.9169 91.9549 16.4891 91.9572 16.0554C91.956 16.0189 91.9616 15.9825 91.9737 15.9485C91.9857 15.9144 92.004 15.8834 92.0273 15.8572C92.0482 15.8294 92.0747 15.8072 92.1048 15.7924C92.1348 15.7775 92.1675 15.7704 92.2005 15.7717H93.3096C93.3511 15.7688 93.3926 15.7753 93.4316 15.7908C93.4707 15.8063 93.5064 15.8305 93.5364 15.8617C93.5924 15.9328 93.6344 16.0155 93.6601 16.1049C93.6847 16.3791 93.7774 16.6407 93.9281 16.8616C94.066 17.0519 94.2484 17.1981 94.4559 17.2849C94.6854 17.3779 94.9286 17.4237 95.1733 17.42C95.3856 17.4344 95.598 17.3942 95.7935 17.3027C95.989 17.2112 96.1621 17.0709 96.299 16.8931C96.5878 16.4705 96.7335 15.9517 96.7113 15.4249V11.2861H92.753C92.7154 11.2874 92.678 11.28 92.6432 11.2645C92.6084 11.249 92.577 11.2257 92.551 11.196C92.5007 11.1356 92.4727 11.057 92.4726 10.9753V10.0746C92.4727 9.99298 92.5007 9.91432 92.551 9.85393C92.577 9.82428 92.6084 9.80094 92.6432 9.78542C92.678 9.7699 92.7154 9.76255 92.753 9.76386H98.0803C98.1191 9.76239 98.1577 9.76963 98.1939 9.78512C98.2301 9.80061 98.263 9.82404 98.2905 9.85393C98.3453 9.91702 98.3749 10.0012 98.373 10.0881V15.4924C98.3858 16.1353 98.2436 16.7706 97.9607 17.3344C97.7012 17.8396 97.3111 18.2501 96.8392 18.5144C96.3105 18.7942 95.7276 18.9302 95.1404 18.9107Z" fill="white"/>
<path d="M102.714 18.7801C102.677 18.7801 102.641 18.7721 102.607 18.7567C102.573 18.7412 102.543 18.7186 102.517 18.6901C102.491 18.6616 102.471 18.6278 102.457 18.5907C102.444 18.5535 102.437 18.5138 102.438 18.4738V10.0746C102.437 10.0342 102.443 9.994 102.456 9.95635C102.47 9.91869 102.49 9.88435 102.516 9.85537C102.541 9.82639 102.572 9.80337 102.606 9.78764C102.64 9.77192 102.677 9.76382 102.714 9.76384H103.811C103.849 9.76246 103.887 9.76975 103.922 9.78525C103.958 9.80075 103.99 9.82414 104.017 9.85391C104.066 9.91474 104.092 9.99348 104.091 10.0746V18.4738C104.093 18.5537 104.066 18.6313 104.017 18.69C103.991 18.7207 103.959 18.7447 103.923 18.7603C103.887 18.7759 103.849 18.7826 103.811 18.7801H102.714Z" fill="white"/>
<path d="M108.532 18.7799C108.495 18.7814 108.459 18.7741 108.424 18.7586C108.39 18.743 108.36 18.7196 108.335 18.6898C108.308 18.6617 108.287 18.6281 108.273 18.591C108.259 18.5538 108.252 18.5139 108.252 18.4736V10.0879C108.25 10.001 108.28 9.9168 108.335 9.85372C108.36 9.82485 108.391 9.80197 108.425 9.78648C108.459 9.771 108.496 9.76323 108.532 9.76364H109.431C109.474 9.75935 109.518 9.76472 109.559 9.77943C109.6 9.79415 109.638 9.8179 109.67 9.84921C109.707 9.88656 109.74 9.92724 109.769 9.9708L113.126 15.7399V10.0879C113.123 10.0016 113.151 9.91752 113.204 9.85372C113.23 9.8236 113.261 9.79993 113.296 9.78438C113.331 9.76883 113.368 9.76175 113.406 9.76364H114.387C114.427 9.7616 114.466 9.76867 114.502 9.78437C114.538 9.80007 114.571 9.82405 114.599 9.85471C114.626 9.88537 114.647 9.92201 114.66 9.96221C114.674 10.0024 114.679 10.0453 114.676 10.0879V18.4601C114.678 18.5022 114.672 18.5443 114.659 18.5837C114.645 18.6232 114.624 18.6593 114.598 18.6898C114.572 18.7192 114.54 18.7424 114.505 18.7579C114.471 18.7734 114.433 18.7809 114.396 18.7799H113.489C113.446 18.7846 113.402 18.7791 113.362 18.7635C113.321 18.7479 113.284 18.7228 113.254 18.6898C113.225 18.6466 113.19 18.6086 113.15 18.5772L109.807 12.9342V18.4736C109.807 18.515 109.799 18.556 109.784 18.594C109.769 18.6321 109.747 18.6665 109.72 18.6951C109.693 18.7237 109.66 18.746 109.625 18.7606C109.589 18.7751 109.552 18.7817 109.514 18.7799H108.532Z" fill="white"/>
</g>
<defs>
<clipPath id="clip0_419_9191">
<rect width="205" height="68" fill="white"/>
</clipPath>
</defs>
</svg>
