<svg width="191" height="63" viewBox="0 0 191 63" fill="none" xmlns="http://www.w3.org/2000/svg">
<g clip-path="url(#clip0_268_11292)">
<path d="M43.8287 36.2545C43.3741 32.8424 42.496 29.5131 41.2184 26.3574C13.4729 28.3227 25.2037 0 25.2037 0C25.2037 0 18.3249 1.59388 12.233 10.4312C6.14113 19.2684 11.3309 35.6871 11.3309 35.6871C4.33694 31.5146 3.88786 20.6036 3.88786 20.6036C0.0031783 31.0348 -0.695488 38.5452 0.586611 43.9277C1.67647 49.719 4.70547 54.8643 9.08654 58.3665C13.4676 61.8687 18.8887 63.4783 24.2994 62.8834C29.7101 62.2885 34.7249 59.5315 38.3721 55.1467C42.0192 50.7618 44.0389 45.0614 44.0398 39.1502C44.0562 38.1798 43.9855 37.21 43.8287 36.2545Z" fill="#FF8129"/>
<path d="M37.2378 21.4715C37.2378 21.4715 40.6272 9.45059 27.9598 7.53125C27.9598 7.52291 23.4686 20.3532 37.2378 21.4715Z" fill="#FF8129"/>
<path d="M57.8372 36.171C57.8028 36.1725 57.7684 36.1657 57.7366 36.1513C57.7048 36.1369 57.6763 36.1152 57.6529 36.0876C57.6283 36.0616 57.6088 36.0304 57.5956 35.996C57.5824 35.9616 57.5758 35.9246 57.5762 35.8873V28.1057C57.5758 28.0677 57.5823 28.0301 57.5955 27.995C57.6087 27.9599 57.6282 27.928 57.6529 27.9012C57.6769 27.8745 57.7055 27.8533 57.7372 27.8389C57.7689 27.8246 57.8029 27.8174 57.8372 27.8178H58.8583C58.8933 27.8166 58.9281 27.8234 58.9605 27.8377C58.9929 27.8521 59.0222 27.8737 59.0464 27.9012C59.0925 27.9574 59.1172 28.0304 59.1155 28.1057V35.8873C59.1174 35.9613 59.0926 36.0332 59.0464 36.0876C59.0228 36.116 58.9937 36.1382 58.9611 36.1526C58.9285 36.1671 58.8934 36.1734 58.8583 36.171H57.8372Z" fill="white"/>
<path d="M63.2536 36.1711C63.1844 36.1711 63.118 36.1412 63.069 36.088C63.0201 36.0348 62.9926 35.9626 62.9926 35.8873V28.1182C62.9906 28.0782 62.9964 28.0382 63.0096 28.0008C63.0228 27.9634 63.0432 27.9295 63.0693 27.9013C63.0932 27.8745 63.1219 27.8533 63.1536 27.839C63.1853 27.8246 63.2193 27.8174 63.2536 27.8178H64.0866C64.1267 27.8133 64.1673 27.8181 64.2056 27.8317C64.244 27.8454 64.2793 27.8676 64.3092 27.8971C64.3439 27.9305 64.3748 27.9683 64.4013 28.0097L67.5298 33.3547V28.1182C67.5267 28.039 67.5514 27.9615 67.5989 27.9013C67.6231 27.8738 67.6524 27.8522 67.6848 27.8378C67.7172 27.8234 67.752 27.8166 67.787 27.8178H68.6929C68.7291 27.8164 68.7651 27.8232 68.7988 27.8375C68.8324 27.8519 68.863 27.8736 68.8887 27.9013C68.9141 27.9301 68.934 27.9641 68.9472 28.0013C68.9604 28.0386 68.9666 28.0783 68.9654 28.1182V35.8748C68.9667 35.9141 68.9606 35.9533 68.9474 35.9899C68.9342 36.0265 68.9142 36.0597 68.8887 36.0876C68.8654 36.1152 68.8368 36.137 68.805 36.1514C68.7732 36.1658 68.7389 36.1725 68.7044 36.1711H67.8561C67.8168 36.1761 67.7769 36.1712 67.7396 36.1567C67.7024 36.1422 67.6686 36.1186 67.6411 36.0876C67.611 36.0482 67.5776 36.0119 67.5413 35.9791L64.4282 30.7552V35.8873C64.4283 35.9257 64.4212 35.9636 64.4073 35.9989C64.3935 36.0342 64.3732 36.066 64.3477 36.0925C64.3222 36.119 64.2921 36.1397 64.2591 36.1532C64.2261 36.1667 64.1909 36.1728 64.1557 36.1711H63.2536Z" fill="white"/>
<path d="M74.7644 36.1711C74.73 36.1722 74.6958 36.1654 74.664 36.151C74.6322 36.1366 74.6036 36.115 74.5802 36.0876C74.5561 36.0614 74.5372 36.0301 74.5246 35.9957C74.5121 35.9612 74.5062 35.9244 74.5073 35.8873V29.2865H72.4958C72.4267 29.2859 72.3606 29.2559 72.3116 29.2031C72.2874 29.1761 72.2684 29.1441 72.2559 29.1089C72.2433 29.0738 72.2375 29.0363 72.2386 28.9986V28.1182C72.2368 28.0786 72.2423 28.039 72.2548 28.0017C72.2674 27.9644 72.2867 27.9303 72.3116 27.9013C72.3606 27.8484 72.4267 27.8184 72.4958 27.8178H78.0311C78.0672 27.8164 78.1033 27.8232 78.1369 27.8375C78.1706 27.8519 78.2012 27.8736 78.2269 27.9013C78.2523 27.9301 78.2722 27.9641 78.2853 28.0013C78.2985 28.0386 78.3048 28.0783 78.3037 28.1182V28.9819C78.3041 29.0198 78.2975 29.0575 78.2843 29.0926C78.2711 29.1277 78.2516 29.1596 78.2269 29.1864C78.2012 29.2141 78.1706 29.2358 78.1369 29.2501C78.1033 29.2645 78.0672 29.2712 78.0311 29.2698H76.035V35.8707C76.0363 35.9081 76.0301 35.9454 76.0169 35.98C76.0036 36.0145 75.9836 36.0456 75.9583 36.0709C75.933 36.0993 75.9025 36.1214 75.8687 36.1358C75.8349 36.1502 75.7987 36.1565 75.7625 36.1544L74.7644 36.1711Z" fill="white"/>
<path d="M81.8314 36.1711C81.797 36.1725 81.7627 36.1658 81.7309 36.1513C81.6991 36.1369 81.6705 36.1152 81.6472 36.0876C81.6226 36.0616 81.6031 36.0305 81.5899 35.996C81.5767 35.9616 81.5701 35.9246 81.5704 35.8873V28.1182C81.5693 28.0783 81.5755 28.0386 81.5887 28.0013C81.6019 27.9641 81.6218 27.9301 81.6472 27.9013C81.6711 27.8745 81.6998 27.8533 81.7314 27.839C81.7631 27.8246 81.7971 27.8174 81.8314 27.8178H86.6067C86.6428 27.8164 86.6788 27.8232 86.7125 27.8375C86.7462 27.8519 86.7768 27.8736 86.8025 27.9013C86.8279 27.9301 86.8477 27.9641 86.8609 28.0013C86.8741 28.0386 86.8803 28.0783 86.8792 28.1182V28.9026C86.8797 28.9406 86.8731 28.9782 86.8599 29.0133C86.8467 29.0484 86.8272 29.0803 86.8025 29.1071C86.7768 29.1348 86.7462 29.1565 86.7125 29.1708C86.6788 29.1852 86.6428 29.1919 86.6067 29.1905H83.0368V31.3018H86.3687C86.441 31.2994 86.5113 31.3278 86.5645 31.3811C86.5896 31.4082 86.609 31.4409 86.6216 31.4769C86.6342 31.5128 86.6395 31.5513 86.6374 31.5897V32.3199C86.6395 32.3583 86.6342 32.3968 86.6216 32.4327C86.609 32.4687 86.5896 32.5013 86.5645 32.5285C86.5113 32.5818 86.441 32.6102 86.3687 32.6078H83.0368V34.79H86.695C86.7314 34.7881 86.7677 34.7946 86.8016 34.8092C86.8355 34.8237 86.8662 34.8459 86.8916 34.8743C86.9171 34.9028 86.9366 34.9367 86.949 34.974C86.9614 35.0112 86.9664 35.0509 86.9637 35.0904V35.879C86.9647 35.916 86.9588 35.9529 86.9463 35.9873C86.9337 36.0218 86.9148 36.0531 86.8908 36.0793C86.8651 36.107 86.8345 36.1287 86.8008 36.143C86.7671 36.1574 86.7311 36.1641 86.695 36.1627L81.8314 36.1711Z" fill="white"/>
<path d="M90.7533 36.1712C90.7189 36.1726 90.6846 36.1659 90.6528 36.1514C90.6209 36.137 90.5924 36.1153 90.5691 36.0877C90.5445 36.0617 90.525 36.0306 90.5118 35.9961C90.4986 35.9617 90.492 35.9247 90.4923 35.8874V28.1183C90.4912 28.0784 90.4974 28.0387 90.5106 28.0014C90.5238 27.9642 90.5437 27.9302 90.5691 27.9013C90.593 27.8746 90.6216 27.8534 90.6533 27.8391C90.685 27.8247 90.719 27.8175 90.7533 27.8179H93.5632C94.3043 27.7742 95.0365 28.01 95.636 28.4855C95.8947 28.7219 96.099 29.021 96.2323 29.3586C96.3656 29.6962 96.4243 30.0631 96.4037 30.4299C96.4282 30.9358 96.2991 31.4365 96.0363 31.8549C95.7734 32.2733 95.3914 32.5862 94.9489 32.7456L96.5343 35.7915C96.5553 35.8309 96.5672 35.8753 96.5688 35.9208C96.5699 35.9548 96.5639 35.9885 96.5512 36.0196C96.5386 36.0507 96.5197 36.0782 96.4959 36.1002C96.4537 36.1449 96.3974 36.1703 96.3385 36.1712H95.352C95.3003 36.1748 95.2486 36.1671 95.1998 36.1485C95.151 36.1298 95.1061 36.1006 95.0679 36.0627C95.0086 36.0002 94.9581 35.9285 94.9182 35.8499L93.5171 33.021H92.0085V35.8874C92.0104 35.9614 91.9857 36.0333 91.9395 36.0877C91.9151 36.1162 91.8853 36.1384 91.8521 36.1529C91.8189 36.1673 91.7832 36.1735 91.7475 36.1712H90.7533ZM92.0009 31.6733H93.5363C93.8918 31.7038 94.2446 31.5859 94.5229 31.3436C94.6351 31.2245 94.7223 31.0804 94.7786 30.9213C94.8349 30.7621 94.859 30.5917 94.8491 30.4215C94.8578 30.2493 94.8336 30.0771 94.7781 29.9155C94.7226 29.754 94.637 29.6066 94.5267 29.4827C94.2503 29.2329 93.8945 29.1114 93.5363 29.1447H92.0009V31.6733Z" fill="white"/>
<path d="M102.886 36.292C102.314 36.3088 101.747 36.1876 101.223 35.9373C100.766 35.7087 100.388 35.329 100.141 34.8525C99.8617 34.2896 99.7152 33.6602 99.7148 33.0208C99.7148 32.6786 99.7148 32.3406 99.7148 32.0068C99.7148 31.673 99.7148 31.3309 99.7148 30.9804C99.7172 30.3455 99.8664 29.7213 100.149 29.1654C100.409 28.69 100.792 28.3083 101.25 28.068C101.767 27.823 102.324 27.6965 102.887 27.6965C103.451 27.6965 104.008 27.823 104.525 28.068C104.986 28.3057 105.371 28.6879 105.63 29.1654C105.916 29.7198 106.065 30.3449 106.064 30.9804C106.079 31.3309 106.087 31.673 106.087 32.0068C106.087 32.3406 106.079 32.6786 106.064 33.0208C106.067 33.6601 105.921 34.29 105.642 34.8525C105.392 35.3294 105.011 35.7089 104.552 35.9373C104.027 36.1872 103.458 36.3083 102.886 36.292ZM102.886 34.9192C103.31 34.9362 103.723 34.7714 104.037 34.4603C104.369 34.0471 104.539 33.5099 104.513 32.9623C104.513 32.6119 104.536 32.2864 104.536 31.9902C104.536 31.6939 104.536 31.3685 104.513 31.0263C104.513 30.6365 104.433 30.2516 104.279 29.8998C104.155 29.63 103.957 29.4095 103.711 29.2697C103.455 29.1318 103.171 29.063 102.886 29.0694C102.603 29.0641 102.324 29.1328 102.072 29.2697C101.825 29.4092 101.625 29.6297 101.5 29.8998C101.347 30.252 101.268 30.6368 101.27 31.0263C101.27 31.3685 101.27 31.6897 101.27 31.9902C101.27 32.2864 101.27 32.6119 101.27 32.9623C101.241 33.5103 101.412 34.0484 101.745 34.4603C102.055 34.7714 102.465 34.9365 102.886 34.9192Z" fill="white"/>
<path d="M109.941 36.171C109.872 36.171 109.805 36.1411 109.757 36.0879C109.708 36.0347 109.68 35.9626 109.68 35.8873V28.1182C109.678 28.0782 109.684 28.0382 109.697 28.0008C109.71 27.9634 109.731 27.9294 109.757 27.9012C109.781 27.8745 109.809 27.8533 109.841 27.8389C109.873 27.8246 109.907 27.8174 109.941 27.8178H112.835C113.341 27.8049 113.844 27.9043 114.313 28.1098C114.714 28.2882 115.055 28.5972 115.288 28.9944C115.534 29.4379 115.656 29.9498 115.638 30.4673C115.658 30.985 115.536 31.4976 115.288 31.9402C115.053 32.3315 114.713 32.6346 114.313 32.808C113.842 33.0066 113.34 33.103 112.835 33.0918H111.219V35.8873C111.221 35.9613 111.196 36.0332 111.15 36.0876C111.126 36.116 111.096 36.1383 111.063 36.1527C111.03 36.1672 110.994 36.1734 110.958 36.171H109.941ZM111.208 31.7691H112.793C113.142 31.796 113.488 31.6782 113.761 31.4395C113.878 31.3132 113.968 31.161 114.027 30.9933C114.085 30.8256 114.109 30.6462 114.098 30.4673C114.112 30.1151 113.999 29.7709 113.784 29.5076C113.65 29.3764 113.494 29.2765 113.323 29.214C113.153 29.1516 112.972 29.1279 112.793 29.1446H111.208V31.7691Z" fill="white"/>
<path d="M119.261 36.1711C119.227 36.1711 119.194 36.1637 119.162 36.1494C119.131 36.1351 119.102 36.1141 119.078 36.0877C119.054 36.0613 119.035 36.03 119.023 35.9956C119.01 35.9612 119.004 35.9244 119.004 35.8873V28.1182C119.002 28.0786 119.008 28.039 119.02 28.0017C119.033 27.9644 119.052 27.9303 119.077 27.9013C119.126 27.8484 119.192 27.8184 119.261 27.8178H124.037C124.073 27.8164 124.109 27.8232 124.143 27.8375C124.176 27.8519 124.207 27.8736 124.232 27.9013C124.259 27.9295 124.279 27.9634 124.292 28.0008C124.305 28.0382 124.311 28.0782 124.309 28.1182V28.9026C124.311 28.9407 124.304 28.9786 124.291 29.0139C124.278 29.0492 124.258 29.0809 124.232 29.1071C124.207 29.1348 124.176 29.1565 124.143 29.1708C124.109 29.1852 124.073 29.1919 124.037 29.1905H120.467V31.3018H123.799C123.835 31.2999 123.87 31.306 123.904 31.3196C123.938 31.3332 123.968 31.3541 123.994 31.3811C124.02 31.4079 124.04 31.4404 124.054 31.4763C124.067 31.5123 124.073 31.551 124.071 31.5897V32.3199C124.073 32.3586 124.067 32.3973 124.054 32.4333C124.04 32.4692 124.02 32.5017 123.994 32.5285C123.968 32.5555 123.938 32.5764 123.904 32.59C123.87 32.6036 123.835 32.6097 123.799 32.6078H120.467V34.79H124.125C124.161 34.7886 124.197 34.7953 124.231 34.8097C124.264 34.824 124.295 34.8457 124.321 34.8734C124.372 34.9319 124.399 35.0099 124.398 35.0904V35.879C124.398 35.9173 124.39 35.9553 124.377 35.9905C124.363 36.0258 124.343 36.0577 124.317 36.0842C124.292 36.1107 124.261 36.1313 124.228 36.1448C124.195 36.1583 124.16 36.1644 124.125 36.1627L119.261 36.1711Z" fill="white"/>
<path d="M128.191 36.1712C128.157 36.1712 128.123 36.1638 128.092 36.1495C128.06 36.1352 128.032 36.1142 128.008 36.0878C127.984 36.0614 127.965 36.0301 127.952 35.9957C127.94 35.9613 127.933 35.9245 127.934 35.8874V28.1183C127.932 28.0787 127.938 28.0391 127.95 28.0018C127.963 27.9645 127.982 27.9304 128.007 27.9013C128.056 27.8485 128.122 27.8185 128.191 27.8179H131.005C131.746 27.7742 132.478 28.01 133.078 28.4855C133.336 28.7219 133.541 29.021 133.674 29.3586C133.807 29.6962 133.866 30.0631 133.845 30.4299C133.868 30.9354 133.738 31.4351 133.476 31.8531C133.213 32.2711 132.832 32.5844 132.391 32.7456L133.976 35.7915C133.994 35.8319 134.005 35.8759 134.007 35.9208C134.007 35.9543 134.002 35.9876 133.99 36.0185C133.978 36.0495 133.96 36.0773 133.938 36.1002C133.895 36.1442 133.839 36.1694 133.78 36.1712H132.79C132.739 36.1743 132.688 36.1663 132.64 36.1476C132.592 36.129 132.547 36.1001 132.51 36.0627C132.45 35.9991 132.399 35.9276 132.356 35.8499L130.959 33.021H129.45V35.8874C129.451 35.9619 129.425 36.0337 129.377 36.0877C129.354 36.1161 129.325 36.1383 129.292 36.1528C129.259 36.1672 129.224 36.1735 129.189 36.1712H128.191ZM129.443 31.6733H130.978C131.334 31.7047 131.687 31.5867 131.964 31.3436C132.077 31.2245 132.164 31.0804 132.22 30.9213C132.277 30.7621 132.301 30.5917 132.291 30.4215C132.3 30.2496 132.276 30.0775 132.222 29.916C132.167 29.7545 132.082 29.607 131.972 29.4827C131.694 29.2338 131.337 29.1126 130.978 29.1447H129.443V31.6733Z" fill="white"/>
<path d="M136.932 36.1712C136.873 36.1695 136.817 36.1442 136.774 36.1002C136.752 36.0773 136.734 36.0495 136.722 36.0186C136.71 35.9876 136.704 35.9543 136.705 35.9208C136.707 35.8834 136.714 35.8467 136.728 35.8123L139.342 28.1183C139.364 28.0377 139.407 27.9654 139.465 27.9097C139.538 27.8462 139.629 27.8135 139.722 27.8179H140.905C140.95 27.8143 140.995 27.8205 141.038 27.8363C141.081 27.852 141.12 27.877 141.154 27.9097C141.212 27.9672 141.257 28.0387 141.285 28.1183L143.899 35.8123C143.902 35.8484 143.902 35.8847 143.899 35.9208C143.9 35.9541 143.895 35.9873 143.884 36.0182C143.873 36.0491 143.855 36.0771 143.833 36.1002C143.814 36.1225 143.791 36.1402 143.765 36.1524C143.74 36.1646 143.712 36.171 143.684 36.1712H142.739C142.7 36.1752 142.659 36.1707 142.621 36.1578C142.583 36.1449 142.547 36.1239 142.517 36.0961C142.475 36.0552 142.443 36.0036 142.425 35.9459L141.914 34.4897H138.69L138.179 35.9459C138.158 36.002 138.126 36.053 138.087 36.0961C138.056 36.1239 138.021 36.1449 137.983 36.1578C137.944 36.1707 137.904 36.1752 137.864 36.1712H136.932ZM139.081 33.1169H141.546L140.31 29.4285L139.081 33.1169Z" fill="white"/>
<path d="M147.349 36.1711C147.315 36.1711 147.281 36.1638 147.25 36.1494C147.219 36.1351 147.19 36.1142 147.166 36.0878C147.142 36.0614 147.123 36.0301 147.111 35.9957C147.098 35.9613 147.092 35.9244 147.092 35.8874V28.1183C147.09 28.0786 147.096 28.039 147.108 28.0017C147.121 27.9645 147.14 27.9303 147.165 27.9013C147.214 27.8484 147.28 27.8185 147.349 27.8178H150.497C150.99 27.7972 151.48 27.897 151.933 28.1099C152.275 28.2797 152.561 28.5611 152.75 28.9152C152.932 29.2814 153.023 29.6926 153.015 30.1085C153.022 30.3814 152.972 30.6524 152.869 30.9013C152.786 31.1109 152.665 31.2997 152.512 31.4562C152.386 31.5876 152.246 31.7012 152.094 31.7942C152.405 31.9515 152.67 32.1982 152.862 32.5077C153.084 32.8578 153.198 33.2757 153.188 33.701C153.197 34.1473 153.096 34.5881 152.896 34.9778C152.694 35.3592 152.39 35.6647 152.025 35.854C151.581 36.0802 151.094 36.1889 150.604 36.1711H147.349ZM148.601 31.2434H150.305C150.617 31.2698 150.927 31.1602 151.165 30.9389C151.261 30.8356 151.336 30.7118 151.385 30.5753C151.435 30.4389 151.458 30.2927 151.453 30.1461C151.46 30.0004 151.438 29.8548 151.389 29.7193C151.339 29.5838 151.263 29.4617 151.165 29.3617C150.919 29.1579 150.613 29.0585 150.305 29.0821H148.601V31.2434ZM148.601 34.9069H150.413C150.575 34.9204 150.739 34.8962 150.893 34.8357C151.046 34.7753 151.186 34.6801 151.303 34.5564C151.502 34.3246 151.611 34.018 151.606 33.701C151.611 33.5405 151.586 33.3805 151.532 33.2308C151.479 33.081 151.398 32.9444 151.295 32.829C151.178 32.7082 151.039 32.615 150.887 32.5554C150.735 32.4958 150.574 32.4711 150.413 32.4827H148.601V34.9069Z" fill="white"/>
<path d="M156.98 36.1711C156.946 36.1711 156.912 36.1637 156.881 36.1494C156.849 36.1351 156.821 36.1141 156.797 36.0877C156.773 36.0613 156.754 36.03 156.741 35.9956C156.729 35.9612 156.722 35.9244 156.723 35.8873V28.1057C156.722 28.068 156.728 28.0305 156.74 27.9954C156.753 27.9602 156.772 27.9282 156.796 27.9012C156.845 27.8484 156.911 27.8184 156.98 27.8178H158.001C158.037 27.8165 158.072 27.8233 158.105 27.8376C158.138 27.852 158.168 27.8736 158.193 27.9012C158.239 27.9574 158.264 28.0305 158.262 28.1057V35.8873C158.264 35.9613 158.239 36.0332 158.193 36.0876C158.169 36.1161 158.139 36.1383 158.106 36.1527C158.073 36.1672 158.037 36.1734 158.001 36.1711H156.98Z" fill="white"/>
<path d="M162.382 36.1712C162.348 36.1726 162.313 36.1658 162.282 36.1514C162.25 36.137 162.221 36.1153 162.198 36.0877C162.173 36.0617 162.154 36.0306 162.141 35.9961C162.127 35.9617 162.121 35.9247 162.121 35.8874V28.1058C162.121 28.0679 162.127 28.0302 162.14 27.9951C162.154 27.96 162.173 27.9281 162.198 27.9013C162.222 27.8746 162.25 27.8534 162.282 27.8391C162.314 27.8247 162.348 27.8175 162.382 27.8179H163.392C163.426 27.8175 163.46 27.8247 163.492 27.8391C163.523 27.8534 163.552 27.8746 163.576 27.9013C163.601 27.9275 163.621 27.9593 163.635 27.9945C163.648 28.0298 163.654 28.0677 163.653 28.1058V34.7525H167.107C167.144 34.7507 167.18 34.7572 167.214 34.7714C167.247 34.7857 167.278 34.8075 167.304 34.8353C167.329 34.8632 167.349 34.8966 167.363 34.9333C167.376 34.9701 167.382 35.0094 167.38 35.0488V35.8833C167.38 35.9216 167.373 35.9595 167.359 35.9948C167.345 36.0301 167.325 36.0619 167.3 36.0884C167.274 36.115 167.244 36.1356 167.211 36.1491C167.178 36.1626 167.143 36.1687 167.107 36.167L162.382 36.1712Z" fill="white"/>
<path d="M170.849 36.171C170.78 36.171 170.713 36.1411 170.665 36.0878C170.616 36.0346 170.588 35.9625 170.588 35.8872V28.1056C170.587 28.0675 170.593 28.0296 170.606 27.9943C170.619 27.9591 170.639 27.9273 170.665 27.9011C170.689 27.8744 170.717 27.8532 170.749 27.8389C170.781 27.8245 170.815 27.8173 170.849 27.8177H171.866C171.902 27.8159 171.938 27.8224 171.971 27.8368C172.004 27.8512 172.034 27.8731 172.058 27.9011C172.104 27.9573 172.129 28.0304 172.127 28.1056V35.8872C172.129 35.9612 172.104 36.0331 172.058 36.0875C172.034 36.1162 172.004 36.1386 171.971 36.1531C171.938 36.1675 171.902 36.1736 171.866 36.171H170.849Z" fill="white"/>
<path d="M177.936 36.1711C177.902 36.1725 177.867 36.1658 177.835 36.1513C177.804 36.1369 177.775 36.1152 177.752 36.0876C177.727 36.0616 177.708 36.0305 177.694 35.996C177.681 35.9616 177.675 35.9246 177.675 35.8873V29.2865H175.667C175.633 29.2869 175.599 29.2797 175.567 29.2653C175.536 29.251 175.507 29.2298 175.483 29.2031C175.458 29.1763 175.439 29.1444 175.426 29.1093C175.413 29.0742 175.406 29.0365 175.406 28.9986V28.1182C175.405 28.0783 175.411 28.0386 175.425 28.0013C175.438 27.9641 175.458 27.9301 175.483 27.9013C175.507 27.8745 175.536 27.8533 175.567 27.839C175.599 27.8246 175.633 27.8174 175.667 27.8178H181.203C181.239 27.8164 181.275 27.8232 181.309 27.8375C181.342 27.8519 181.373 27.8736 181.398 27.9013C181.424 27.9301 181.444 27.9641 181.457 28.0013C181.47 28.0386 181.476 28.0783 181.475 28.1182V28.9819C181.476 29.0198 181.469 29.0575 181.456 29.0926C181.443 29.1277 181.423 29.1596 181.398 29.1864C181.373 29.2141 181.342 29.2358 181.309 29.2501C181.275 29.2645 181.239 29.2712 181.203 29.2698H179.207V35.8707C179.207 35.909 179.2 35.9469 179.186 35.9822C179.172 36.0175 179.152 36.0493 179.126 36.0758C179.101 36.1024 179.071 36.123 179.038 36.1365C179.005 36.15 178.969 36.1561 178.934 36.1544L177.936 36.1711Z" fill="white"/>
<path d="M186.998 36.171C186.929 36.171 186.862 36.1411 186.813 36.0879C186.764 36.0346 186.737 35.9625 186.737 35.8872V33.1876L184.176 28.2016L184.153 28.139C184.149 28.1155 184.149 28.0915 184.153 28.068C184.153 28.0012 184.176 27.9368 184.219 27.8886C184.238 27.8659 184.262 27.8478 184.289 27.8356C184.315 27.8234 184.343 27.8173 184.372 27.8177H185.336C185.411 27.8143 185.486 27.8393 185.547 27.8886C185.596 27.9293 185.636 27.9822 185.662 28.043L187.508 31.5187L189.343 28.043C189.375 27.9838 189.417 27.9315 189.466 27.8886C189.527 27.8399 189.601 27.8149 189.677 27.8177H190.633C190.663 27.8171 190.693 27.8232 190.721 27.8356C190.749 27.8481 190.774 27.8666 190.796 27.89C190.817 27.9134 190.833 27.9413 190.844 27.9719C190.855 28.0025 190.86 28.0352 190.859 28.068C190.861 28.0916 190.861 28.1154 190.859 28.139C190.857 28.1625 190.848 28.1844 190.833 28.2016L188.272 33.1876V35.8872C188.272 35.9256 188.265 35.9635 188.251 35.9988C188.237 36.0341 188.217 36.0659 188.192 36.0924C188.166 36.1189 188.136 36.1396 188.103 36.1531C188.07 36.1666 188.035 36.1727 188 36.171H186.998Z" fill="white"/>
<path d="M60.9371 54.0709C60.3529 54.0907 59.7712 53.9785 59.2289 53.7413C58.8198 53.5671 58.4598 53.2793 58.1848 52.9068C57.9546 52.5855 57.8207 52.1952 57.801 51.7886C57.7997 51.7554 57.8049 51.7222 57.8161 51.6913C57.8273 51.6604 57.8444 51.6324 57.8662 51.6091C57.8881 51.586 57.9139 51.5679 57.9422 51.5557C57.9705 51.5435 58.0008 51.5376 58.0313 51.5382H59.0063C59.0831 51.5307 59.1597 51.5545 59.2212 51.605C59.2712 51.6499 59.3141 51.7034 59.3479 51.7635C59.3995 51.9328 59.4862 52.087 59.6013 52.2141C59.7449 52.3743 59.9192 52.4983 60.1118 52.5771C60.3735 52.681 60.6511 52.7291 60.9295 52.719C61.3392 52.749 61.7481 52.6505 62.1079 52.4353C62.2282 52.3531 62.3268 52.2383 62.3941 52.1023C62.4613 51.9663 62.495 51.8136 62.4918 51.6592C62.4963 51.5559 62.4801 51.4528 62.4443 51.3569C62.4085 51.2611 62.354 51.1749 62.2845 51.1043C62.0939 50.9329 61.875 50.8027 61.6396 50.7204C61.2625 50.5755 60.878 50.4543 60.488 50.3574C60.0122 50.2401 59.5499 50.0652 59.1099 49.8358C58.7747 49.6646 58.4872 49.3997 58.277 49.0681C58.0825 48.6986 57.9856 48.2778 57.9972 47.8523C58.0087 47.4267 58.1281 47.0129 58.3422 46.6564C58.595 46.2841 58.9378 45.9953 59.3326 45.8219C59.8185 45.6018 60.3419 45.4966 60.868 45.5132C61.2968 45.504 61.724 45.5746 62.1309 45.7218C62.463 45.8405 62.7716 46.0259 63.0407 46.2684C63.2644 46.4731 63.4517 46.7205 63.5934 46.9986C63.7157 47.2291 63.7854 47.488 63.7969 47.7538C63.797 47.8177 63.7766 47.8796 63.7393 47.929C63.7172 47.9543 63.6903 47.9742 63.6605 47.9871C63.6307 48.0001 63.5987 48.0059 63.5666 48.0041H62.5493C62.4891 48.0049 62.4297 47.9891 62.3766 47.9582C62.3105 47.9184 62.259 47.855 62.2308 47.7788C62.2036 47.647 62.1517 47.5227 62.0784 47.4135C62.0051 47.3044 61.9119 47.2129 61.8047 47.1446C61.5236 46.9614 61.1993 46.8715 60.8719 46.8859C60.5393 46.8695 60.2089 46.9517 59.9161 47.1237C59.7949 47.1955 59.6947 47.3027 59.6268 47.4333C59.5589 47.5638 59.5262 47.7125 59.5322 47.8623C59.5252 48.0662 59.5913 48.2651 59.7164 48.4172C59.8798 48.593 60.0781 48.7257 60.2961 48.8052C60.5648 48.9179 60.9179 49.0347 61.3555 49.1641C61.8831 49.2796 62.3978 49.4558 62.891 49.6898C63.2402 49.847 63.5411 50.1089 63.7585 50.445C63.9501 50.7967 64.0447 51.2007 64.031 51.6091C64.0439 52.0909 63.9089 52.5636 63.6472 52.9527C63.3623 53.3423 62.9836 53.6383 62.5532 53.808C62.0336 54.0013 61.486 54.0904 60.9371 54.0709Z" fill="white"/>
<path d="M70.5766 54.071C70.0071 54.0853 69.4414 53.9657 68.9183 53.7205C68.4578 53.494 68.0769 53.1121 67.832 52.6315C67.5562 52.0525 67.4239 51.4054 67.4481 50.7539V45.8971C67.4463 45.8166 67.4739 45.7386 67.5249 45.6802C67.5495 45.6533 67.5788 45.6321 67.6111 45.6177C67.6434 45.6034 67.6781 45.5963 67.713 45.5967H68.711C68.7467 45.5949 68.7822 45.6014 68.8153 45.6158C68.8484 45.6302 68.8783 45.6522 68.903 45.6802C68.9525 45.7393 68.9787 45.8172 68.9759 45.8971V50.7539C68.9361 51.2788 69.0893 51.7994 69.402 52.2017C69.5577 52.3635 69.7423 52.4888 69.9443 52.5699C70.1463 52.651 70.3616 52.6862 70.5766 52.6732C70.7881 52.6852 70.9996 52.6495 71.1978 52.5684C71.3959 52.4872 71.5765 52.3624 71.7282 52.2017C72.0376 51.7977 72.1892 51.2779 72.1504 50.7539V45.8971C72.1488 45.8572 72.1548 45.8174 72.1681 45.7801C72.1814 45.7429 72.2017 45.709 72.2277 45.6808C72.2537 45.6525 72.2848 45.6304 72.3191 45.616C72.3534 45.6015 72.3901 45.595 72.4268 45.5967H73.4133C73.449 45.5949 73.4845 45.6014 73.5176 45.6158C73.5507 45.6302 73.5806 45.6522 73.6053 45.6802C73.6549 45.7393 73.681 45.8172 73.6782 45.8971V50.7539C73.7008 51.4052 73.5686 52.0519 73.2943 52.6315C73.055 53.1123 72.6775 53.4948 72.2195 53.7205C71.7012 53.9637 71.141 54.0833 70.5766 54.071Z" fill="white"/>
<path d="M77.8039 53.954C77.769 53.9545 77.7344 53.9473 77.7021 53.933C77.6698 53.9187 77.6404 53.8974 77.6158 53.8706C77.5666 53.816 77.5391 53.7426 77.5391 53.6661V45.8845C77.5391 45.808 77.5666 45.7346 77.6158 45.68C77.6404 45.6532 77.6698 45.6319 77.7021 45.6176C77.7344 45.6033 77.769 45.5961 77.8039 45.5966H78.8365C78.8721 45.5953 78.9075 45.6021 78.9405 45.6164C78.9735 45.6308 79.0035 45.6524 79.0284 45.68C79.0742 45.7364 79.0988 45.8093 79.0975 45.8845V53.6661C79.0988 53.7413 79.0742 53.8142 79.0284 53.8706C79.0035 53.8982 78.9735 53.9198 78.9405 53.9342C78.9075 53.9486 78.8721 53.9553 78.8365 53.954H77.8039Z" fill="white"/>
<path d="M84.9765 53.954C84.9415 53.955 84.9067 53.9481 84.8744 53.9337C84.842 53.9193 84.8127 53.8979 84.7884 53.8706C84.7392 53.816 84.7116 53.7426 84.7116 53.6661V47.0653H82.6809C82.646 47.0659 82.6113 47.0588 82.579 47.0445C82.5466 47.0303 82.5172 47.0091 82.4925 46.9822C82.4678 46.9554 82.4483 46.9234 82.4352 46.8883C82.4221 46.8531 82.4156 46.8154 82.4161 46.7774V45.897C82.4143 45.8165 82.4419 45.7385 82.4929 45.68C82.5175 45.6532 82.5469 45.632 82.5792 45.6176C82.6115 45.6033 82.646 45.5961 82.6809 45.5966H88.27C88.3061 45.5953 88.3422 45.602 88.3759 45.6163C88.4095 45.6307 88.4401 45.6523 88.4658 45.68C88.5167 45.7385 88.5443 45.8165 88.5425 45.897V46.7774C88.543 46.8153 88.5364 46.853 88.5232 46.8881C88.51 46.9232 88.4905 46.9551 88.4658 46.9819C88.4401 47.0096 88.4095 47.0313 88.3759 47.0456C88.3422 47.06 88.3061 47.0667 88.27 47.0653H86.247V53.6661C86.2479 53.7041 86.2416 53.7419 86.2283 53.7771C86.2151 53.8123 86.1954 53.8441 86.1703 53.8706C86.1446 53.8983 86.114 53.92 86.0803 53.9343C86.0466 53.9487 86.0107 53.9554 85.9745 53.954H84.9765Z" fill="white"/>
<path d="M92.1067 53.9542C92.0718 53.9546 92.0372 53.9475 92.0049 53.9331C91.9726 53.9188 91.9433 53.8976 91.9186 53.8707C91.8694 53.8161 91.8419 53.7427 91.8419 53.6663V45.8971C91.8401 45.8166 91.8677 45.7386 91.9186 45.6802C91.9433 45.6533 91.9726 45.6321 92.0049 45.6177C92.0372 45.6034 92.0718 45.5963 92.1067 45.5967H96.9357C96.9724 45.5949 97.0091 45.6015 97.0434 45.616C97.0777 45.6304 97.1088 45.6525 97.1348 45.6808C97.1608 45.709 97.1811 45.7429 97.1944 45.7801C97.2077 45.8174 97.2137 45.8572 97.2121 45.8971V46.6816C97.213 46.7196 97.2066 46.7573 97.1934 46.7925C97.1802 46.8277 97.1604 46.8595 97.1353 46.886C97.0815 46.9414 97.0098 46.9714 96.9357 46.9695H93.3236V49.0807H96.7131C96.7864 49.0793 96.8575 49.1076 96.9127 49.16C96.9385 49.1868 96.9586 49.2193 96.9719 49.2553C96.9851 49.2913 96.9911 49.3299 96.9894 49.3686V50.1071C96.9911 50.1459 96.9851 50.1845 96.9719 50.2205C96.9586 50.2565 96.9385 50.289 96.9127 50.3158C96.8583 50.3697 96.7866 50.3981 96.7131 50.3951H93.3427V52.5814H97.0432C97.0796 52.5797 97.1159 52.5861 97.1499 52.6003C97.1839 52.6146 97.2149 52.6362 97.2408 52.664C97.2667 52.6918 97.2871 52.7252 97.3007 52.7619C97.3142 52.7987 97.3207 52.8381 97.3196 52.8777V53.6663C97.3196 53.7427 97.292 53.8161 97.2428 53.8707C97.189 53.9261 97.1173 53.9561 97.0432 53.9542H92.1067Z" fill="white"/>
<path d="M57.8373 17.3991C57.8028 17.4005 57.7685 17.3938 57.7367 17.3794C57.7049 17.365 57.6763 17.3432 57.653 17.3157C57.6284 17.2897 57.6089 17.2585 57.5957 17.2241C57.5825 17.1896 57.5759 17.1527 57.5763 17.1154V9.34625C57.5745 9.26574 57.602 9.18773 57.653 9.12928C57.6769 9.10254 57.7056 9.08134 57.7373 9.06699C57.7689 9.05265 57.8029 9.04545 57.8373 9.04583H58.7931C58.8286 9.04504 58.8639 9.05202 58.8969 9.06635C58.9298 9.08069 58.9598 9.1021 58.985 9.12928C59.011 9.15766 59.0312 9.1916 59.0445 9.22896C59.0577 9.26632 59.0636 9.30627 59.0618 9.34625V12.1376L61.5147 9.26279C61.5565 9.20906 61.6057 9.16263 61.6605 9.12511C61.7439 9.06717 61.842 9.03941 61.9408 9.04583H63.0117C63.0706 9.04674 63.1269 9.07212 63.1691 9.11677C63.1925 9.13914 63.2111 9.16677 63.2237 9.19775C63.2363 9.22873 63.2426 9.26231 63.2421 9.29618C63.2433 9.34929 63.227 9.40113 63.196 9.44222L60.2134 13.043L63.4032 16.9944C63.4382 17.0368 63.4573 17.0918 63.457 17.1488C63.4578 17.1823 63.452 17.2156 63.4401 17.2465C63.4282 17.2774 63.4104 17.3052 63.3879 17.3282C63.3675 17.351 63.343 17.3691 63.316 17.3813C63.2889 17.3935 63.2598 17.3996 63.2305 17.3991H62.1135C62.0112 17.4058 61.9098 17.375 61.8256 17.3115C61.7776 17.2724 61.7314 17.2306 61.6874 17.1863L59.0618 14.0236V17.1154C59.0631 17.1528 59.0569 17.1901 59.0437 17.2247C59.0304 17.2593 59.0104 17.2903 58.985 17.3157C58.9603 17.3437 58.9305 17.3656 58.8974 17.38C58.8643 17.3944 58.8287 17.4009 58.7931 17.3991H57.8373Z" fill="white"/>
<path d="M69.5262 17.5201C68.9553 17.5361 68.388 17.4165 67.864 17.1696C67.4065 16.9383 67.0268 16.5576 66.7777 16.0806C66.5015 15.5167 66.3566 14.8878 66.3555 14.2489C66.3555 13.9068 66.3555 13.5688 66.3555 13.235C66.3555 12.9012 66.3555 12.5591 66.3555 12.2086C66.3578 11.5736 66.507 10.9495 66.7892 10.3936C67.0494 9.91812 67.4325 9.53646 67.8909 9.29621C68.408 9.05409 68.9651 8.9292 69.5281 8.9292C70.0911 8.9292 70.6482 9.05409 71.1652 9.29621C71.6254 9.53516 72.0101 9.91704 72.2707 10.3936C72.5565 10.948 72.7058 11.5731 72.7045 12.2086C72.7199 12.5591 72.7276 12.9012 72.7276 13.235C72.7276 13.5688 72.7199 13.9068 72.7045 14.2489C72.7071 14.8883 72.5619 15.5181 72.2823 16.0806C72.0328 16.5588 71.6515 16.9397 71.1921 17.1696C70.6666 17.416 70.0983 17.5356 69.5262 17.5201ZM69.5262 16.1474C69.9508 16.1662 70.365 16.0012 70.6778 15.6884C71.0129 15.2773 71.1853 14.739 71.1576 14.1905C71.1576 13.84 71.1806 13.5146 71.1806 13.2183C71.1806 12.9221 71.1806 12.6008 71.1576 12.2587C71.1583 11.8675 71.0783 11.4811 70.9234 11.1279C70.7998 10.8581 70.601 10.6376 70.3553 10.4979C70.0987 10.3614 69.8156 10.2941 69.53 10.3018C69.2482 10.295 68.969 10.3622 68.7162 10.4979C68.4694 10.6374 68.2693 10.8578 68.1442 11.1279C67.9912 11.4817 67.9113 11.8677 67.9101 12.2587C67.9101 12.6008 67.9101 12.9179 67.9101 13.2183C67.9101 13.5187 67.9101 13.84 67.9101 14.1905C67.8824 14.739 68.0548 15.2773 68.3899 15.6884C68.698 15.9986 69.1065 16.1636 69.5262 16.1474Z" fill="white"/>
<path d="M76.5758 17.3993C76.5417 17.3993 76.5079 17.3919 76.4764 17.3776C76.445 17.3633 76.4164 17.3423 76.3925 17.3159C76.3686 17.2895 76.3497 17.2582 76.337 17.2238C76.3243 17.1894 76.3181 17.1526 76.3186 17.1155V9.34641C76.3157 9.26648 76.3419 9.18855 76.3915 9.12944C76.4406 9.07657 76.5067 9.04662 76.5758 9.04599H79.2244C79.8449 9.02242 80.4626 9.14926 81.0324 9.41733C81.4907 9.64674 81.8679 10.0319 82.1072 10.5147C82.3668 11.0642 82.4986 11.6745 82.491 12.2922C82.491 12.6426 82.491 12.9556 82.491 13.2226C82.491 13.4897 82.491 13.8026 82.491 14.1447C82.4948 14.7793 82.3634 15.4062 82.1072 15.9764C81.8811 16.4522 81.5129 16.8303 81.0631 17.0488C80.4966 17.3028 79.8867 17.4223 79.2743 17.3993H76.5758ZM77.8272 16.0265H79.2244C79.563 16.0402 79.9004 15.9762 80.2148 15.8388C80.4637 15.7141 80.6618 15.4943 80.7714 15.2212C80.9044 14.868 80.9697 14.4889 80.9633 14.1072C80.9633 13.8694 80.9633 13.6607 80.9633 13.4813C80.9633 13.3019 80.9633 13.1225 80.9633 12.9431C80.9633 12.7636 80.9633 12.5592 80.9633 12.3297C80.9875 11.8047 80.8285 11.2891 80.518 10.886C80.3333 10.7147 80.119 10.5852 79.8876 10.5049C79.6563 10.4247 79.4126 10.3954 79.1707 10.4187H77.8272V16.0265Z" fill="white"/>
<path d="M88.573 17.5201C88.1967 17.5224 87.822 17.4677 87.4598 17.3574C87.1208 17.2585 86.8018 17.0915 86.5193 16.865C86.2476 16.6416 86.0237 16.3569 85.8629 16.0305C85.6943 15.6729 85.6074 15.2765 85.6095 14.8748C85.6084 14.8409 85.6137 14.8073 85.6249 14.7757C85.6361 14.7441 85.6531 14.7154 85.6748 14.6912C85.6942 14.6654 85.7189 14.6448 85.7469 14.6311C85.7749 14.6173 85.8054 14.6107 85.836 14.6119H86.8686C86.9072 14.6092 86.9458 14.6153 86.9822 14.6296C87.0185 14.644 87.0517 14.6664 87.0797 14.6953C87.1318 14.7612 87.171 14.8378 87.1949 14.9206C87.2178 15.1746 87.3041 15.417 87.4444 15.6216C87.5728 15.798 87.7425 15.9335 87.9357 16.0138C88.1494 16.1 88.3758 16.1424 88.6037 16.139C88.8013 16.1523 88.999 16.1151 89.181 16.0303C89.363 15.9455 89.5242 15.8156 89.6516 15.6508C89.9205 15.2594 90.0561 14.7786 90.0355 14.2906V10.4561H86.3504C86.3154 10.4573 86.2806 10.4505 86.2482 10.4361C86.2158 10.4218 86.1865 10.4001 86.1623 10.3727C86.1155 10.3167 86.0895 10.2438 86.0893 10.1682V9.33373C86.0895 9.2581 86.1155 9.18522 86.1623 9.12928C86.1865 9.10181 86.2158 9.08018 86.2482 9.0658C86.2806 9.05143 86.3154 9.04462 86.3504 9.04583H91.3099C91.346 9.04447 91.382 9.05117 91.4157 9.06552C91.4494 9.07988 91.48 9.10158 91.5057 9.12928C91.5566 9.18773 91.5842 9.26573 91.5824 9.34624V14.3532C91.5944 14.9488 91.462 15.5373 91.1986 16.0597C90.957 16.5278 90.5938 16.9081 90.1545 17.1529C89.6623 17.4122 89.1197 17.5382 88.573 17.5201Z" fill="white"/>
<path d="M95.6245 17.3991C95.5904 17.3991 95.5566 17.3917 95.5252 17.3774C95.4937 17.3631 95.4652 17.3421 95.4412 17.3157C95.4173 17.2893 95.3985 17.258 95.3858 17.2236C95.3731 17.1892 95.3668 17.1524 95.3673 17.1153V9.33371C95.3663 9.2963 95.3722 9.25905 95.3846 9.22416C95.3971 9.18928 95.4159 9.15746 95.4399 9.13061C95.4639 9.10376 95.4926 9.08243 95.5243 9.06786C95.556 9.05329 95.5901 9.04579 95.6245 9.04581H96.6455C96.6811 9.04453 96.7165 9.05128 96.7496 9.06565C96.7826 9.08001 96.8125 9.10168 96.8375 9.12926C96.8832 9.18562 96.9079 9.25856 96.9066 9.33371V17.1153C96.9085 17.1893 96.8837 17.2612 96.8375 17.3156C96.8131 17.3441 96.7833 17.3663 96.7501 17.3808C96.7169 17.3952 96.6812 17.4014 96.6455 17.3991H95.6245Z" fill="white"/>
<path d="M101.04 17.3993C101.006 17.4007 100.972 17.394 100.94 17.3796C100.908 17.3651 100.88 17.3434 100.856 17.3158C100.832 17.2898 100.812 17.2587 100.799 17.2242C100.786 17.1898 100.779 17.1528 100.779 17.1155V9.34642C100.778 9.26591 100.805 9.18791 100.856 9.12946C100.88 9.10271 100.909 9.08151 100.94 9.06717C100.972 9.05282 101.006 9.04563 101.04 9.04601H101.877C101.917 9.04203 101.958 9.047 101.996 9.06064C102.034 9.07427 102.07 9.09627 102.1 9.12528C102.134 9.15989 102.164 9.19758 102.192 9.23794L105.317 14.5829V9.34642C105.314 9.2665 105.34 9.18857 105.39 9.12946C105.413 9.10155 105.443 9.07963 105.475 9.06522C105.508 9.05081 105.543 9.04425 105.578 9.04601H106.491C106.528 9.04412 106.564 9.05066 106.598 9.06521C106.632 9.07975 106.662 9.10197 106.688 9.13038C106.713 9.15878 106.733 9.19273 106.745 9.22998C106.758 9.26722 106.763 9.30692 106.76 9.34642V17.103C106.762 17.142 106.756 17.181 106.744 17.2176C106.731 17.2542 106.712 17.2876 106.687 17.3158C106.663 17.3431 106.633 17.3646 106.601 17.3789C106.569 17.3933 106.534 17.4002 106.499 17.3993H105.654C105.615 17.4037 105.574 17.3985 105.536 17.3841C105.499 17.3697 105.464 17.3464 105.436 17.3158C105.409 17.2758 105.376 17.2406 105.34 17.2115L102.227 11.9834V17.1155C102.227 17.1539 102.219 17.1918 102.206 17.2271C102.192 17.2624 102.172 17.2942 102.146 17.3207C102.121 17.3472 102.09 17.3679 102.057 17.3814C102.024 17.3949 101.989 17.401 101.954 17.3993H101.04Z" fill="white"/>
</g>
<defs>
<clipPath id="clip0_268_11292">
<rect width="190.848" height="63" fill="white"/>
</clipPath>
</defs>
</svg>
